<svg width="14" height="14" viewBox="0 0 14 14" fill="none" xmlns="http://www.w3.org/2000/svg">
<path d="M9.06262 4.1123L7.0001 6.17571L4.93758 4.1123L4.11279 4.93788L6.17544 7.0004L4.11279 9.06292L4.93758 9.8885L7.0001 7.82585L9.06262 9.8885L9.88741 9.06292L7.82476 7.0004L9.88741 4.93788L9.06262 4.1123Z" fill="#A2A2A2"/>
<path d="M7 0C3.13998 0 0 3.14024 0 7C0 10.86 3.14024 14 7 14C10.86 14 14 10.859 14 7C14 3.13998 10.8599 0 7 0ZM7 12.8336C3.78315 12.8336 1.16645 10.2168 1.16645 7C1.16645 3.78315 3.78315 1.16645 7 1.16645C10.2168 1.16645 12.8336 3.78394 12.8336 7C12.8336 10.2168 10.2168 12.8336 7 12.8336Z" fill="#A2A2A2"/>
</svg>
